# xmcd
#
# Track frame offsets:
#	150
#	20242
#	47617
#	85032
#	110887
#	149970
#	176850
#	196907
#	224702
#	250885
#
# Disc length: 3670
#
# Revision: 1
# Processed by: cddbd v1.5.1PL0 Copyright (c) Steve Scherf et al.
# Submitted via: CDex 1.50Beta7
# Normalized: r0:TDELIM( - )
#
DISCID=a20e540a
DTITLE=Omnibus - The Best of Jazz Piano
DYEAR=1996
DGENRE=Jazz
TTITLE0=Ray Bryant - Cubano Chant
TTITLE1=Thelonious Monk - Bye-Ya
TTITLE2=The Dave Brubeck Quartet - Someday my prince will come
TTITLE3=Mal Waldron - All Alone
TTITLE4=Bill Evans - My Romance
TTITLE5=Herbie Hancock - I fall in love too easily
TTITLE6=Ellis Mersalis - Charlie Brown
TTITLE7=The Great Jazz Quintet - On Green Dolphin Street
TTITLE8=Michel Camilo - Impressions
TTITLE9=Ray Bryant - Autumn Leaves
EXTD=YEAR: 1996
EXTT0=
EXTT1=
EXTT2=
EXTT3=
EXTT4=
EXTT5=
EXTT6=
EXTT7=
EXTT8=
EXTT9=
PLAYORDER=
